<?xml version="1.0" encoding="UTF-8"?>
<svg id="Capa_1" data-name="Capa 1" xmlns="http://www.w3.org/2000/svg" viewBox="0 0 1152.8 493.06">
  <defs>
    <style>
      .cls-1 {
        font-family: Paganini-Light, Paganini;
        font-size: 92.62px;
        font-weight: 300;
        letter-spacing: -.03em;
        stroke: #000;
        stroke-miterlimit: 10;
        stroke-width: 7px;
      }

      .cls-2 {
        stroke-width: 0px;
      }
    </style>
  </defs>
  <text class="cls-1" transform="translate(509.86 263.09)"><tspan x="0" y="0">LA</tspan><tspan x="-71.41" y="101">BOCA</tspan></text>
  <path class="cls-2" d="M549.83,110.22c-81.81,14.16-147.87,66.46-205.6,117.94-38.19,34.05-75.69,68.78-117.36,99.37-82,60.2-124,51.99-152,51.99s-58.43-7.81-70.81-29.21c-8.22-14.19-3.53-33.4,10.23-43.39,13.76-10,34.99-10,49.03-.34-8.34-.43-16.83-.81-24.95.98s-15.97,6.1-19.76,12.89c-4.09,7.31-2.77,16.47,1.81,23.54,13.48,20.79,41.57,21.62,64.89,18.46,77.21-10.47,148.53-52.59,199.79-105.15,45.45-46.6,95.94-93.66,154.8-126.04,20.97-11.54,43.18-21.5,66.79-27.43,3.58-.9,7.22-1.71,10.93-1.73,11.2-.08,21.1,6.88,32.21,8.11Z"/>
  <path class="cls-2" d="M576.19,131.03c-4.36-7.03-15.11-7.88-23.99-7.21-76.7,5.79-140.43,55.59-191.18,108.37s-96.05,112.22-161.37,149.36c-20.65,11.74-44.43,21.24-68.6,18.68-24.17-2.57-47.57-20.96-46.51-43.14.96-19.88,21.23-35.74,42.74-39.09,21.51-3.35,43.46,3.31,62.84,12.45,44.23,20.86,79.46,54.27,118.02,83.01,50.67,37.76,109.74,68.5,174.47,77.16,65.81,8.81,135.14-6.52,189.22-41.85,54.08-35.33,92.31-90.26,104.35-149.94,4.49-22.24,5-46.76-8.45-65.76,41.6,31.07,69.36,74.52,104.08,111.97s82.15,70.94,135.89,69.5c28.03-.75,57.94-13.75,67.43-37.81,9.3-23.57-4.77-51.4-28.18-64.49-36.06-20.17-81.12-8.88-113.93,11.16-28.51,17.42-51.46,41.25-76.77,62.39-47.85,39.96-105.82,70.96-169.26,83.35s-132.47,5.09-187.93-25.6c-55.47-30.7-95.44-85.89-98.27-145.01s34.64-119.69,94.22-143.12c34.22-13.45,72.94-14.61,109.85-9.97,34.52,4.34,69.29,14.05,95.94,34.53,51.92,39.9,60.52,113.44,34.83,170.76-20.34,45.37-59.53,83.45-107.88,104.83-52.9,23.39-115.16,26.51-172.19,13.47-57.03-13.04-108.98-41.47-152.56-77.47-50.05-41.33-140.73-132.44-212.96-68.87-11.31,9.95-18.94,24.01-17.99,38.32,1.03,15.57,12.01,29.52,25.96,38.54,30.51,19.74,73.27,17.64,106.82,2.56,33.55-15.08,59.51-41.13,82.6-67.97,31.14-36.19,63.26-70.43,97.44-104.21,0,0-14,48.34-4,91.21,14.22,60.99,70.24,118.32,130,145.95,73,33.75,140,30.1,209,10.95,69-19.16,131-65.68,163-93.95s77-67.5,124-63.85c47,3.65,64,21.89,61,40.14-3,18.24-29,57.47-102,31.01-50.05-18.13-81.63-53.84-114.22-91.16-39.82-45.59-82.67-93.98-133.63-129.65-37.6-26.32-83.09-45.34-130.49-45.38-4.87,0-11.33,1.62-11.2,6.06-.04-.07-.09-.15-.13-.22Z"/>
  <path class="cls-2" d="M602.97,111.61c81.81,14.16,147.87,66.46,205.6,117.94,38.19,34.05,75.69,68.78,117.36,99.37,82,60.2,124,51.99,152,51.99s58.43-7.81,70.81-29.21c8.22-14.19,3.53-33.4-10.23-43.39-13.76-10-34.99-10-49.03-.34,8.34-.43,16.83-.81,24.95.98s15.97,6.1,19.76,12.89c4.09,7.31,2.77,16.47-1.81,23.54-13.48,20.79-41.57,21.62-64.89,18.46-77.21-10.47-148.53-52.59-199.79-105.15-45.45-46.6-95.94-93.66-154.8-126.04-20.97-11.54-43.18-21.5-66.79-27.43-3.58-.9-7.22-1.71-10.93-1.73-11.2-.08-21.1,6.88-32.21,8.11Z"/>
  <path class="cls-2" d="M630.83,52.48s2.04-7.73-5.96-15.94-24-6.39-24-6.39c0,0-1-7.3-2-9.12s-23.87-21.03-23.87-21.03c0,0-21.13,16.47-23.13,22.86l-2,6.39s-15-2.74-23,5.47-7,17.33-7,17.33c0,0-16,1.82-17,19.16s22.34,30.83,41.67,32.29c19.33,1.46,21.33,1.46,21.33,1.46l9.88-11.89,10.2,11.89h19.43c7.49,0,42.49-10.95,43.49-33.75s-18.04-18.73-18.04-18.73ZM528.87,83.97c-11-13.68-8-29.19-8-29.19,0,0,2,18.24,13,28.28s27,15.51,27,15.51c0,0-21-.91-32-14.59ZM551.87,61.17c-6-15.51-2.04-21.13-2.04-21.13,0,0,8.04,8.18,11.04,17.4,2.95,9.06,8.81,30.41,8.99,31.08-.57-.56-12.14-12.21-17.99-27.35ZM580.87,89.25s6.2-22.33,9.3-31.72c3.1-9.4,11.4-17.74,11.4-17.74,0,0,4.09,5.73-2.11,21.55-6.19,15.82-18.59,27.91-18.59,27.91ZM623.22,84.59c-11.36,13.96-33.05,14.89-33.05,14.89,0,0,16.52-5.58,27.89-15.82,11.36-10.23,13.42-28.84,13.42-28.84,0,0,3.1,15.82-8.26,29.77Z"/>
  <path class="cls-2" d="M575.76,96.46l8.24,8.49s-2.36,22.39-8.24,22.39-7.62-22.39-7.62-22.39l7.62-8.49Z"/>
</svg>